<svg width="320" height="320" viewBox="0 0 320 320" fill="none" xmlns="http://www.w3.org/2000/svg">
<g filter="url(#filter0_i_560_1753)">
<rect width="320" height="320" rx="15" fill="white"/>
</g>
<circle cx="160" cy="100" r="79" stroke="black" stroke-opacity="0.5" stroke-width="2" stroke-dasharray="5 5"/>
<path d="M153.273 101.576H168.182C180.606 101.576 185.576 96.606 185.576 84.1818V69.2727C185.576 56.8485 180.606 51.8788 168.182 51.8788H153.273C140.849 51.8788 135.879 56.8485 135.879 69.2727V84.1818C135.879 96.606 140.849 101.576 153.273 101.576Z" stroke="#474747" stroke-width="2" stroke-linecap="round" stroke-linejoin="round"/>
<path d="M137.543 93.997L149.794 85.7721C151.757 84.4551 154.59 84.6042 156.354 86.12L157.174 86.8406C159.112 88.5054 162.243 88.5054 164.181 86.8406L174.518 77.9697C176.456 76.3048 179.587 76.3048 181.525 77.9697L185.576 81.4485M153.273 71.7576C154.591 71.7576 155.855 71.234 156.787 70.302C157.719 69.37 158.242 68.1059 158.242 66.7879C158.242 65.4698 157.719 64.2057 156.787 63.2737C155.855 62.3417 154.591 61.8182 153.273 61.8182C151.955 61.8182 150.69 62.3417 149.758 63.2737C148.826 64.2057 148.303 65.4698 148.303 66.7879C148.303 68.1059 148.826 69.37 149.758 70.302C150.69 71.234 151.955 71.7576 153.273 71.7576Z" stroke="#474747" stroke-width="2" stroke-linecap="round" stroke-linejoin="round"/>
<path d="M116.194 127.522C116.133 127.328 116.05 127.155 115.945 127.001C115.843 126.846 115.72 126.714 115.578 126.605C115.435 126.494 115.272 126.41 115.089 126.353C114.907 126.295 114.708 126.266 114.491 126.266C114.122 126.266 113.79 126.361 113.494 126.551C113.198 126.74 112.963 127.018 112.791 127.385C112.62 127.749 112.535 128.196 112.535 128.724C112.535 129.255 112.621 129.703 112.794 130.07C112.966 130.436 113.203 130.714 113.503 130.904C113.804 131.093 114.146 131.188 114.529 131.188C114.885 131.188 115.195 131.116 115.459 130.971C115.726 130.826 115.931 130.621 116.076 130.357C116.223 130.091 116.297 129.778 116.297 129.418L116.552 129.466H114.68V128.651H117.252V129.395C117.252 129.945 117.135 130.422 116.901 130.827C116.668 131.23 116.347 131.541 115.936 131.76C115.526 131.98 115.058 132.089 114.529 132.089C113.937 132.089 113.417 131.953 112.97 131.68C112.524 131.408 112.177 131.021 111.928 130.52C111.678 130.017 111.554 129.421 111.554 128.73C111.554 128.208 111.626 127.74 111.771 127.324C111.916 126.909 112.119 126.556 112.382 126.266C112.646 125.974 112.956 125.752 113.312 125.598C113.67 125.443 114.061 125.365 114.485 125.365C114.838 125.365 115.167 125.417 115.472 125.522C115.779 125.626 116.052 125.774 116.29 125.966C116.531 126.158 116.73 126.386 116.888 126.65C117.046 126.912 117.152 127.203 117.208 127.522H116.194ZM119.494 125.455V132H118.506V125.455H119.494ZM120.932 132V125.455H124.991V126.305H121.919V128.299H124.7V129.146H121.919V132H120.932ZM127.011 131.105L126.963 131.453C126.931 131.709 126.877 131.975 126.8 132.252C126.726 132.532 126.648 132.79 126.567 133.029C126.488 133.268 126.423 133.457 126.372 133.598H125.695C125.722 133.466 125.761 133.287 125.81 133.061C125.859 132.837 125.907 132.587 125.953 132.31C126 132.033 126.036 131.751 126.059 131.463L126.091 131.105H127.011ZM133.258 125.455H134.242V130.095C134.242 130.515 134.159 130.874 133.993 131.172C133.829 131.471 133.598 131.699 133.3 131.856C133.001 132.012 132.652 132.089 132.251 132.089C131.883 132.089 131.551 132.022 131.257 131.888C130.965 131.754 130.734 131.559 130.564 131.303C130.395 131.045 130.311 130.732 130.311 130.364H131.292C131.292 130.545 131.334 130.701 131.417 130.833C131.502 130.966 131.618 131.069 131.765 131.143C131.915 131.216 132.085 131.252 132.277 131.252C132.486 131.252 132.662 131.208 132.807 131.121C132.954 131.032 133.066 130.901 133.143 130.728C133.22 130.555 133.258 130.344 133.258 130.095V125.455ZM135.68 132V125.455H138.013C138.522 125.455 138.944 125.547 139.278 125.733C139.613 125.918 139.863 126.172 140.03 126.493C140.196 126.813 140.279 127.173 140.279 127.574C140.279 127.976 140.195 128.338 140.026 128.66C139.86 128.98 139.609 129.233 139.272 129.421C138.938 129.606 138.517 129.699 138.01 129.699H136.405V128.862H137.92C138.242 128.862 138.503 128.806 138.703 128.695C138.903 128.582 139.051 128.429 139.144 128.235C139.238 128.041 139.285 127.821 139.285 127.574C139.285 127.326 139.238 127.107 139.144 126.915C139.051 126.723 138.902 126.573 138.7 126.464C138.5 126.356 138.236 126.301 137.907 126.301H136.667V132H135.68ZM145.866 127.522C145.805 127.328 145.721 127.155 145.617 127.001C145.515 126.846 145.392 126.714 145.249 126.605C145.107 126.494 144.944 126.41 144.76 126.353C144.579 126.295 144.38 126.266 144.163 126.266C143.794 126.266 143.462 126.361 143.166 126.551C142.869 126.74 142.635 127.018 142.463 127.385C142.292 127.749 142.207 128.196 142.207 128.724C142.207 129.255 142.293 129.703 142.466 130.07C142.638 130.436 142.875 130.714 143.175 130.904C143.476 131.093 143.818 131.188 144.201 131.188C144.557 131.188 144.867 131.116 145.131 130.971C145.398 130.826 145.603 130.621 145.748 130.357C145.895 130.091 145.969 129.778 145.969 129.418L146.224 129.466H144.351V128.651H146.924V129.395C146.924 129.945 146.807 130.422 146.573 130.827C146.34 131.23 146.019 131.541 145.607 131.76C145.198 131.98 144.73 132.089 144.201 132.089C143.609 132.089 143.089 131.953 142.642 131.68C142.196 131.408 141.849 131.021 141.6 130.52C141.35 130.017 141.226 129.421 141.226 128.73C141.226 128.208 141.298 127.74 141.443 127.324C141.588 126.909 141.791 126.556 142.053 126.266C142.318 125.974 142.628 125.752 142.983 125.598C143.341 125.443 143.732 125.365 144.156 125.365C144.51 125.365 144.839 125.417 145.144 125.522C145.451 125.626 145.724 125.774 145.962 125.966C146.203 126.158 146.402 126.386 146.56 126.65C146.717 126.912 146.824 127.203 146.879 127.522H145.866ZM152.551 132.099C152.091 132.099 151.689 131.994 151.346 131.783C151.003 131.572 150.736 131.277 150.547 130.897C150.357 130.518 150.262 130.075 150.262 129.568C150.262 129.059 150.357 128.613 150.547 128.232C150.736 127.85 151.003 127.554 151.346 127.343C151.689 127.132 152.091 127.027 152.551 127.027C153.011 127.027 153.413 127.132 153.756 127.343C154.099 127.554 154.365 127.85 154.555 128.232C154.744 128.613 154.839 129.059 154.839 129.568C154.839 130.075 154.744 130.518 154.555 130.897C154.365 131.277 154.099 131.572 153.756 131.783C153.413 131.994 153.011 132.099 152.551 132.099ZM152.554 131.297C152.852 131.297 153.099 131.218 153.295 131.06C153.491 130.903 153.636 130.693 153.73 130.431C153.826 130.169 153.874 129.88 153.874 129.565C153.874 129.251 153.826 128.964 153.73 128.702C153.636 128.437 153.491 128.225 153.295 128.066C153.099 127.906 152.852 127.826 152.554 127.826C152.254 127.826 152.004 127.906 151.806 128.066C151.61 128.225 151.464 128.437 151.368 128.702C151.274 128.964 151.228 129.251 151.228 129.565C151.228 129.88 151.274 130.169 151.368 130.431C151.464 130.693 151.61 130.903 151.806 131.06C152.004 131.218 152.254 131.297 152.554 131.297ZM155.906 132V127.091H156.829V127.871H156.881C156.97 127.607 157.128 127.399 157.354 127.248C157.582 127.094 157.839 127.017 158.127 127.017C158.187 127.017 158.257 127.02 158.338 127.024C158.421 127.028 158.486 127.033 158.533 127.04V127.954C158.495 127.943 158.426 127.931 158.328 127.919C158.23 127.904 158.132 127.896 158.034 127.896C157.808 127.896 157.607 127.944 157.43 128.04C157.256 128.134 157.117 128.265 157.015 128.433C156.913 128.599 156.861 128.789 156.861 129.002V132H155.906ZM161.818 132V125.455H164.152C164.661 125.455 165.083 125.547 165.417 125.733C165.752 125.918 166.002 126.172 166.168 126.493C166.334 126.813 166.418 127.173 166.418 127.574C166.418 127.976 166.333 128.338 166.165 128.66C165.999 128.98 165.747 129.233 165.411 129.421C165.076 129.606 164.655 129.699 164.148 129.699H162.544V128.862H164.059C164.381 128.862 164.642 128.806 164.842 128.695C165.042 128.582 165.189 128.429 165.283 128.235C165.377 128.041 165.424 127.821 165.424 127.574C165.424 127.326 165.377 127.107 165.283 126.915C165.189 126.723 165.041 126.573 164.839 126.464C164.638 126.356 164.374 126.301 164.046 126.301H162.806V132H161.818ZM172.858 125.455V132H171.951L168.624 127.2H168.563V132H167.575V125.455H168.489L171.82 130.261H171.88V125.455H172.858ZM178.729 127.522C178.667 127.328 178.584 127.155 178.479 127.001C178.377 126.846 178.255 126.714 178.112 126.605C177.969 126.494 177.806 126.41 177.623 126.353C177.442 126.295 177.242 126.266 177.025 126.266C176.657 126.266 176.324 126.361 176.028 126.551C175.732 126.74 175.497 127.018 175.325 127.385C175.154 127.749 175.069 128.196 175.069 128.724C175.069 129.255 175.155 129.703 175.328 130.07C175.501 130.436 175.737 130.714 176.038 130.904C176.338 131.093 176.68 131.188 177.063 131.188C177.419 131.188 177.729 131.116 177.994 130.971C178.26 130.826 178.465 130.621 178.61 130.357C178.757 130.091 178.831 129.778 178.831 129.418L179.087 129.466H177.214V128.651H179.786V129.395C179.786 129.945 179.669 130.422 179.435 130.827C179.203 131.23 178.881 131.541 178.47 131.76C178.061 131.98 177.592 132.089 177.063 132.089C176.471 132.089 175.951 131.953 175.504 131.68C175.058 131.408 174.711 131.021 174.462 130.52C174.213 130.017 174.088 129.421 174.088 128.73C174.088 128.208 174.16 127.74 174.305 127.324C174.45 126.909 174.654 126.556 174.916 126.266C175.18 125.974 175.49 125.752 175.846 125.598C176.204 125.443 176.595 125.365 177.019 125.365C177.372 125.365 177.702 125.417 178.006 125.522C178.313 125.626 178.586 125.774 178.824 125.966C179.065 126.158 179.264 126.386 179.422 126.65C179.58 126.912 179.686 127.203 179.742 127.522H178.729ZM185.682 127.091V127.858H182.907V127.091H185.682ZM183.668 132V126.522C183.668 126.215 183.735 125.961 183.869 125.758C184.004 125.554 184.182 125.401 184.403 125.301C184.625 125.199 184.865 125.148 185.125 125.148C185.317 125.148 185.481 125.164 185.618 125.196C185.754 125.225 185.855 125.253 185.921 125.279L185.698 126.052C185.653 126.039 185.595 126.025 185.525 126.007C185.455 125.988 185.369 125.979 185.269 125.979C185.037 125.979 184.871 126.036 184.771 126.151C184.673 126.266 184.624 126.433 184.624 126.65V132H183.668ZM188.542 132.099C188.082 132.099 187.68 131.994 187.337 131.783C186.994 131.572 186.728 131.277 186.538 130.897C186.348 130.518 186.254 130.075 186.254 129.568C186.254 129.059 186.348 128.613 186.538 128.232C186.728 127.85 186.994 127.554 187.337 127.343C187.68 127.132 188.082 127.027 188.542 127.027C189.002 127.027 189.404 127.132 189.747 127.343C190.09 127.554 190.356 127.85 190.546 128.232C190.736 128.613 190.83 129.059 190.83 129.568C190.83 130.075 190.736 130.518 190.546 130.897C190.356 131.277 190.09 131.572 189.747 131.783C189.404 131.994 189.002 132.099 188.542 132.099ZM188.545 131.297C188.843 131.297 189.091 131.218 189.287 131.06C189.483 130.903 189.628 130.693 189.721 130.431C189.817 130.169 189.865 129.88 189.865 129.565C189.865 129.251 189.817 128.964 189.721 128.702C189.628 128.437 189.483 128.225 189.287 128.066C189.091 127.906 188.843 127.826 188.545 127.826C188.245 127.826 187.995 127.906 187.797 128.066C187.601 128.225 187.455 128.437 187.359 128.702C187.266 128.964 187.219 129.251 187.219 129.565C187.219 129.88 187.266 130.169 187.359 130.431C187.455 130.693 187.601 130.903 187.797 131.06C187.995 131.218 188.245 131.297 188.545 131.297ZM191.897 132V127.091H192.821V127.871H192.872C192.961 127.607 193.119 127.399 193.345 127.248C193.573 127.094 193.831 127.017 194.118 127.017C194.178 127.017 194.248 127.02 194.329 127.024C194.412 127.028 194.477 127.033 194.524 127.04V127.954C194.486 127.943 194.418 127.931 194.32 127.919C194.222 127.904 194.124 127.896 194.026 127.896C193.8 127.896 193.598 127.944 193.422 128.04C193.247 128.134 193.108 128.265 193.006 128.433C192.904 128.599 192.853 128.789 192.853 129.002V132H191.897ZM195.351 132V127.091H196.268V127.89H196.329C196.431 127.619 196.599 127.408 196.831 127.257C197.063 127.104 197.341 127.027 197.665 127.027C197.993 127.027 198.268 127.104 198.49 127.257C198.713 127.411 198.878 127.621 198.985 127.89H199.036C199.153 127.628 199.34 127.419 199.595 127.263C199.851 127.106 200.156 127.027 200.509 127.027C200.955 127.027 201.318 127.167 201.599 127.446C201.883 127.725 202.024 128.146 202.024 128.708V132H201.069V128.798C201.069 128.465 200.978 128.224 200.797 128.075C200.616 127.926 200.4 127.852 200.148 127.852C199.837 127.852 199.595 127.947 199.423 128.139C199.25 128.329 199.164 128.573 199.164 128.871V132H198.212V128.737C198.212 128.471 198.128 128.256 197.962 128.094C197.796 127.933 197.58 127.852 197.313 127.852C197.132 127.852 196.965 127.9 196.812 127.995C196.66 128.089 196.538 128.22 196.444 128.388C196.353 128.557 196.307 128.752 196.307 128.973V132H195.351ZM204.734 132.109C204.423 132.109 204.142 132.051 203.89 131.936C203.639 131.819 203.439 131.65 203.292 131.428C203.148 131.206 203.075 130.935 203.075 130.613C203.075 130.336 203.128 130.108 203.235 129.929C203.341 129.75 203.485 129.608 203.666 129.504C203.847 129.4 204.05 129.321 204.274 129.267C204.497 129.214 204.725 129.174 204.958 129.146C205.252 129.112 205.49 129.084 205.673 129.063C205.857 129.039 205.99 129.002 206.073 128.951C206.156 128.9 206.198 128.817 206.198 128.702V128.679C206.198 128.4 206.119 128.184 205.961 128.031C205.806 127.877 205.573 127.8 205.264 127.8C204.943 127.8 204.689 127.872 204.504 128.015C204.32 128.155 204.194 128.312 204.123 128.484L203.225 128.28C203.332 127.982 203.487 127.741 203.692 127.558C203.899 127.372 204.136 127.238 204.405 127.155C204.673 127.07 204.955 127.027 205.252 127.027C205.448 127.027 205.655 127.05 205.875 127.097C206.096 127.142 206.303 127.225 206.495 127.347C206.689 127.468 206.847 127.642 206.971 127.868C207.095 128.091 207.156 128.382 207.156 128.74V132H206.223V131.329H206.185C206.123 131.452 206.03 131.574 205.907 131.693C205.783 131.812 205.624 131.912 205.431 131.99C205.237 132.069 205.004 132.109 204.734 132.109ZM204.942 131.342C205.206 131.342 205.432 131.289 205.619 131.185C205.809 131.081 205.953 130.944 206.051 130.776C206.151 130.605 206.201 130.423 206.201 130.229V129.597C206.167 129.631 206.101 129.663 206.003 129.692C205.907 129.72 205.797 129.745 205.673 129.766C205.55 129.785 205.43 129.803 205.312 129.82C205.195 129.835 205.097 129.848 205.018 129.859C204.833 129.882 204.664 129.922 204.51 129.977C204.359 130.032 204.237 130.112 204.146 130.217C204.056 130.319 204.012 130.455 204.012 130.626C204.012 130.862 204.099 131.041 204.274 131.163C204.448 131.282 204.671 131.342 204.942 131.342ZM210.721 127.091V127.858H208.039V127.091H210.721ZM208.758 125.915H209.714V130.559C209.714 130.744 209.742 130.884 209.797 130.977C209.853 131.069 209.924 131.132 210.011 131.166C210.101 131.198 210.198 131.214 210.302 131.214C210.379 131.214 210.446 131.208 210.503 131.198C210.561 131.187 210.606 131.179 210.638 131.172L210.81 131.962C210.755 131.983 210.676 132.004 210.574 132.026C210.471 132.049 210.344 132.062 210.19 132.064C209.939 132.068 209.704 132.023 209.487 131.93C209.27 131.836 209.094 131.691 208.96 131.495C208.826 131.299 208.758 131.053 208.758 130.757V125.915ZM130.797 145.455H131.996L134.08 150.543H134.156L136.24 145.455H137.439V152H136.499V147.263H136.438L134.508 151.99H133.728L131.798 147.26H131.737V152H130.797V145.455ZM140.227 152.109C139.915 152.109 139.634 152.051 139.383 151.936C139.131 151.819 138.932 151.65 138.785 151.428C138.64 151.206 138.568 150.935 138.568 150.613C138.568 150.336 138.621 150.108 138.728 149.929C138.834 149.75 138.978 149.608 139.159 149.504C139.34 149.4 139.543 149.321 139.766 149.267C139.99 149.214 140.218 149.174 140.45 149.146C140.744 149.112 140.983 149.084 141.166 149.063C141.349 149.039 141.483 149.002 141.566 148.951C141.649 148.9 141.69 148.817 141.69 148.702V148.679C141.69 148.4 141.611 148.184 141.454 148.031C141.298 147.877 141.066 147.8 140.757 147.8C140.435 147.8 140.182 147.872 139.996 148.015C139.813 148.155 139.686 148.312 139.616 148.484L138.718 148.28C138.825 147.982 138.98 147.741 139.185 147.558C139.391 147.372 139.629 147.238 139.897 147.155C140.166 147.07 140.448 147.027 140.744 147.027C140.94 147.027 141.148 147.05 141.367 147.097C141.589 147.142 141.796 147.225 141.988 147.347C142.181 147.468 142.34 147.642 142.464 147.868C142.587 148.091 142.649 148.382 142.649 148.74V152H141.716V151.329H141.678C141.616 151.452 141.523 151.574 141.399 151.693C141.276 151.812 141.117 151.912 140.923 151.99C140.729 152.069 140.497 152.109 140.227 152.109ZM140.434 151.342C140.698 151.342 140.924 151.289 141.112 151.185C141.301 151.081 141.445 150.944 141.543 150.776C141.643 150.605 141.693 150.423 141.693 150.229V149.597C141.659 149.631 141.593 149.663 141.495 149.692C141.399 149.72 141.29 149.745 141.166 149.766C141.043 149.785 140.922 149.803 140.805 149.82C140.688 149.835 140.59 149.848 140.511 149.859C140.326 149.882 140.156 149.922 140.003 149.977C139.852 150.032 139.73 150.112 139.638 150.217C139.549 150.319 139.504 150.455 139.504 150.626C139.504 150.862 139.592 151.041 139.766 151.163C139.941 151.282 140.164 151.342 140.434 151.342ZM144.676 147.091L145.76 149.002L146.853 147.091H147.898L146.367 149.545L147.911 152H146.865L145.76 150.165L144.657 152H143.609L145.136 149.545L143.628 147.091H144.676ZM154.939 148.289L154.073 148.443C154.037 148.332 153.98 148.227 153.901 148.126C153.824 148.026 153.72 147.944 153.587 147.88C153.455 147.816 153.29 147.784 153.092 147.784C152.822 147.784 152.596 147.845 152.415 147.967C152.233 148.086 152.143 148.24 152.143 148.43C152.143 148.594 152.204 148.726 152.325 148.826C152.447 148.926 152.643 149.009 152.913 149.072L153.693 149.251C154.145 149.356 154.481 149.517 154.703 149.734C154.924 149.951 155.035 150.234 155.035 150.581C155.035 150.875 154.95 151.137 154.78 151.367C154.611 151.595 154.376 151.774 154.073 151.904C153.773 152.034 153.424 152.099 153.028 152.099C152.478 152.099 152.03 151.982 151.683 151.748C151.335 151.511 151.122 151.175 151.043 150.741L151.967 150.6C152.025 150.841 152.143 151.023 152.322 151.147C152.501 151.268 152.734 151.329 153.022 151.329C153.335 151.329 153.585 151.264 153.773 151.134C153.96 151.002 154.054 150.841 154.054 150.651C154.054 150.498 153.997 150.369 153.882 150.265C153.769 150.16 153.595 150.081 153.361 150.028L152.53 149.846C152.072 149.741 151.733 149.575 151.513 149.347C151.296 149.119 151.187 148.831 151.187 148.481C151.187 148.191 151.268 147.938 151.43 147.721C151.592 147.503 151.816 147.334 152.101 147.212C152.387 147.089 152.714 147.027 153.083 147.027C153.613 147.027 154.031 147.142 154.335 147.372C154.64 147.6 154.841 147.906 154.939 148.289ZM156.086 152V147.091H157.042V152H156.086ZM156.569 146.333C156.402 146.333 156.26 146.278 156.14 146.167C156.023 146.054 155.965 145.92 155.965 145.765C155.965 145.607 156.023 145.473 156.14 145.362C156.26 145.249 156.402 145.192 156.569 145.192C156.735 145.192 156.876 145.249 156.994 145.362C157.113 145.473 157.173 145.607 157.173 145.765C157.173 145.92 157.113 146.054 156.994 146.167C156.876 146.278 156.735 146.333 156.569 146.333ZM158.225 152V151.345L160.884 147.967V147.922H158.311V147.091H162.076V147.788L159.519 151.124V151.169H162.166V152H158.225ZM165.268 152.099C164.784 152.099 164.368 151.996 164.019 151.789C163.671 151.58 163.403 151.287 163.213 150.91C163.026 150.531 162.932 150.087 162.932 149.577C162.932 149.075 163.026 148.631 163.213 148.248C163.403 147.864 163.667 147.565 164.006 147.35C164.347 147.135 164.745 147.027 165.201 147.027C165.478 147.027 165.746 147.073 166.006 147.164C166.266 147.256 166.5 147.4 166.706 147.596C166.913 147.792 167.076 148.047 167.195 148.36C167.315 148.671 167.374 149.049 167.374 149.494V149.833H163.472V149.117H166.438C166.438 148.866 166.387 148.643 166.284 148.449C166.182 148.253 166.038 148.099 165.853 147.986C165.67 147.873 165.455 147.816 165.207 147.816C164.939 147.816 164.705 147.882 164.504 148.015C164.306 148.145 164.153 148.315 164.044 148.526C163.938 148.735 163.884 148.962 163.884 149.207V149.766C163.884 150.094 163.942 150.373 164.057 150.603C164.174 150.833 164.337 151.009 164.546 151.131C164.755 151.25 164.999 151.31 165.278 151.31C165.459 151.31 165.624 151.284 165.773 151.233C165.922 151.18 166.051 151.101 166.16 150.996C166.269 150.892 166.352 150.763 166.409 150.61L167.314 150.773C167.241 151.039 167.111 151.272 166.924 151.473C166.738 151.671 166.505 151.825 166.224 151.936C165.945 152.045 165.626 152.099 165.268 152.099ZM172.964 152.089C172.564 152.089 172.204 152.013 171.884 151.859C171.566 151.704 171.313 151.491 171.123 151.22C170.934 150.95 170.832 150.641 170.82 150.293H171.778C171.802 150.575 171.927 150.806 172.152 150.987C172.378 151.168 172.649 151.259 172.964 151.259C173.216 151.259 173.438 151.201 173.632 151.086C173.828 150.969 173.982 150.808 174.092 150.603C174.205 150.399 174.262 150.165 174.262 149.903C174.262 149.637 174.204 149.4 174.089 149.191C173.974 148.982 173.815 148.818 173.613 148.699C173.413 148.579 173.183 148.518 172.923 148.516C172.724 148.516 172.525 148.55 172.325 148.619C172.125 148.687 171.963 148.776 171.839 148.887L170.935 148.753L171.302 145.455H174.901V146.301H172.124L171.916 148.133H171.954C172.082 148.009 172.251 147.906 172.462 147.823C172.675 147.74 172.903 147.698 173.146 147.698C173.545 147.698 173.9 147.793 174.211 147.983C174.524 148.172 174.77 148.431 174.949 148.759C175.13 149.085 175.219 149.46 175.217 149.884C175.219 150.308 175.124 150.686 174.93 151.019C174.738 151.351 174.472 151.613 174.131 151.805C173.792 151.995 173.403 152.089 172.964 152.089ZM178.856 145.455H180.055L182.138 150.543H182.215L184.299 145.455H185.497V152H184.558V147.263H184.497L182.567 151.99H181.787L179.856 147.26H179.796V152H178.856V145.455ZM186.933 152V145.455H189.33C189.795 145.455 190.179 145.531 190.484 145.685C190.789 145.836 191.017 146.042 191.168 146.301C191.319 146.559 191.395 146.85 191.395 147.174C191.395 147.447 191.345 147.677 191.245 147.864C191.144 148.05 191.01 148.199 190.842 148.312C190.676 148.423 190.492 148.504 190.292 148.555V148.619C190.51 148.629 190.722 148.7 190.928 148.83C191.137 148.957 191.31 149.14 191.446 149.376C191.582 149.613 191.651 149.9 191.651 150.239C191.651 150.574 191.572 150.874 191.414 151.14C191.258 151.404 191.018 151.614 190.692 151.77C190.366 151.923 189.949 152 189.442 152H186.933ZM187.921 151.153H189.346C189.819 151.153 190.158 151.061 190.363 150.878C190.567 150.695 190.669 150.466 190.669 150.191C190.669 149.984 190.617 149.795 190.513 149.622C190.408 149.45 190.259 149.312 190.065 149.21C189.874 149.108 189.646 149.056 189.381 149.056H187.921V151.153ZM187.921 148.286H189.244C189.466 148.286 189.665 148.244 189.842 148.158C190.021 148.073 190.162 147.954 190.267 147.8C190.373 147.645 190.426 147.462 190.426 147.251C190.426 146.98 190.332 146.753 190.142 146.57C189.952 146.387 189.662 146.295 189.269 146.295H187.921V148.286Z" fill="black"/>
<rect x="85" y="200" width="150" height="40" rx="7" fill="#F33535"/>
<path d="M123.239 225H121.609L125.273 214.818H127.048L130.712 225H129.081L126.203 216.668H126.123L123.239 225ZM123.513 221.013H128.803V222.305H123.513V221.013ZM134.798 225.149C134.182 225.149 133.632 224.992 133.148 224.677C132.667 224.359 132.289 223.906 132.014 223.32C131.743 222.73 131.607 222.022 131.607 221.197C131.607 220.371 131.744 219.665 132.019 219.079C132.298 218.492 132.679 218.043 133.163 217.732C133.647 217.42 134.195 217.264 134.808 217.264C135.282 217.264 135.663 217.344 135.952 217.503C136.243 217.659 136.469 217.841 136.628 218.05C136.79 218.259 136.916 218.442 137.006 218.602H137.095V214.818H138.582V225H137.13V223.812H137.006C136.916 223.974 136.787 224.16 136.618 224.369C136.452 224.577 136.224 224.76 135.932 224.915C135.64 225.071 135.262 225.149 134.798 225.149ZM135.127 223.881C135.554 223.881 135.915 223.769 136.21 223.543C136.509 223.315 136.734 222.998 136.886 222.594C137.042 222.189 137.12 221.719 137.12 221.182C137.12 220.652 137.044 220.187 136.891 219.79C136.739 219.392 136.515 219.082 136.22 218.86C135.925 218.638 135.561 218.527 135.127 218.527C134.679 218.527 134.306 218.643 134.008 218.875C133.71 219.107 133.484 219.424 133.332 219.825C133.183 220.226 133.108 220.678 133.108 221.182C133.108 221.692 133.184 222.151 133.337 222.559C133.489 222.967 133.715 223.29 134.013 223.528C134.314 223.764 134.686 223.881 135.127 223.881ZM143.562 225.149C142.946 225.149 142.395 224.992 141.911 224.677C141.431 224.359 141.053 223.906 140.778 223.32C140.506 222.73 140.37 222.022 140.37 221.197C140.37 220.371 140.508 219.665 140.783 219.079C141.061 218.492 141.443 218.043 141.926 217.732C142.41 217.42 142.959 217.264 143.572 217.264C144.046 217.264 144.427 217.344 144.715 217.503C145.007 217.659 145.233 217.841 145.392 218.05C145.554 218.259 145.68 218.442 145.769 218.602H145.859V214.818H147.345V225H145.894V223.812H145.769C145.68 223.974 145.551 224.16 145.382 224.369C145.216 224.577 144.987 224.76 144.696 224.915C144.404 225.071 144.026 225.149 143.562 225.149ZM143.89 223.881C144.318 223.881 144.679 223.769 144.974 223.543C145.272 223.315 145.498 222.998 145.65 222.594C145.806 222.189 145.884 221.719 145.884 221.182C145.884 220.652 145.808 220.187 145.655 219.79C145.503 219.392 145.279 219.082 144.984 218.86C144.689 218.638 144.324 218.527 143.89 218.527C143.443 218.527 143.07 218.643 142.772 218.875C142.473 219.107 142.248 219.424 142.095 219.825C141.946 220.226 141.872 220.678 141.872 221.182C141.872 221.692 141.948 222.151 142.1 222.559C142.253 222.967 142.478 223.29 142.777 223.528C143.078 223.764 143.449 223.881 143.89 223.881ZM153.172 227.864V217.364H154.624V218.602H154.748C154.834 218.442 154.959 218.259 155.121 218.05C155.283 217.841 155.509 217.659 155.797 217.503C156.085 217.344 156.467 217.264 156.941 217.264C157.557 217.264 158.107 217.42 158.591 217.732C159.075 218.043 159.455 218.492 159.73 219.079C160.008 219.665 160.147 220.371 160.147 221.197C160.147 222.022 160.01 222.73 159.735 223.32C159.46 223.906 159.082 224.359 158.601 224.677C158.121 224.992 157.572 225.149 156.956 225.149C156.492 225.149 156.112 225.071 155.817 224.915C155.525 224.76 155.297 224.577 155.131 224.369C154.965 224.16 154.838 223.974 154.748 223.812H154.659V227.864H153.172ZM154.629 221.182C154.629 221.719 154.707 222.189 154.862 222.594C155.018 222.998 155.244 223.315 155.539 223.543C155.834 223.769 156.195 223.881 156.622 223.881C157.067 223.881 157.438 223.764 157.736 223.528C158.034 223.29 158.26 222.967 158.412 222.559C158.568 222.151 158.646 221.692 158.646 221.182C158.646 220.678 158.57 220.226 158.417 219.825C158.268 219.424 158.043 219.107 157.741 218.875C157.443 218.643 157.07 218.527 156.622 218.527C156.192 218.527 155.827 218.638 155.529 218.86C155.234 219.082 155.01 219.392 154.858 219.79C154.705 220.187 154.629 220.652 154.629 221.182ZM163.299 220.466V225H161.813V214.818H163.279V218.607H163.374C163.553 218.196 163.826 217.869 164.194 217.627C164.562 217.385 165.043 217.264 165.636 217.264C166.16 217.264 166.617 217.372 167.008 217.587C167.402 217.803 167.707 218.124 167.923 218.552C168.142 218.976 168.251 219.506 168.251 220.143V225H166.764V220.322C166.764 219.762 166.62 219.327 166.332 219.019C166.044 218.708 165.643 218.552 165.129 218.552C164.777 218.552 164.463 218.626 164.184 218.776C163.909 218.925 163.692 219.143 163.533 219.432C163.377 219.717 163.299 220.062 163.299 220.466ZM173.451 225.154C172.735 225.154 172.111 224.99 171.577 224.662C171.043 224.334 170.629 223.875 170.334 223.285C170.039 222.695 169.892 222.005 169.892 221.217C169.892 220.424 170.039 219.732 170.334 219.138C170.629 218.545 171.043 218.085 171.577 217.756C172.111 217.428 172.735 217.264 173.451 217.264C174.167 217.264 174.792 217.428 175.326 217.756C175.859 218.085 176.273 218.545 176.568 219.138C176.863 219.732 177.011 220.424 177.011 221.217C177.011 222.005 176.863 222.695 176.568 223.285C176.273 223.875 175.859 224.334 175.326 224.662C174.792 224.99 174.167 225.154 173.451 225.154ZM173.456 223.906C173.92 223.906 174.305 223.784 174.61 223.538C174.915 223.293 175.14 222.967 175.286 222.559C175.435 222.151 175.509 221.702 175.509 221.212C175.509 220.724 175.435 220.277 175.286 219.869C175.14 219.458 174.915 219.129 174.61 218.88C174.305 218.631 173.92 218.507 173.456 218.507C172.989 218.507 172.601 218.631 172.293 218.88C171.988 219.129 171.761 219.458 171.612 219.869C171.466 220.277 171.393 220.724 171.393 221.212C171.393 221.702 171.466 222.151 171.612 222.559C171.761 222.967 171.988 223.293 172.293 223.538C172.601 223.784 172.989 223.906 173.456 223.906ZM182.235 217.364V218.557H178.064V217.364H182.235ZM179.182 215.534H180.669V222.758C180.669 223.046 180.712 223.263 180.798 223.409C180.884 223.552 180.995 223.649 181.131 223.702C181.27 223.752 181.421 223.777 181.584 223.777C181.703 223.777 181.807 223.769 181.897 223.752C181.986 223.736 182.056 223.722 182.106 223.712L182.374 224.94C182.288 224.973 182.165 225.007 182.006 225.04C181.847 225.076 181.648 225.096 181.41 225.099C181.018 225.106 180.654 225.036 180.316 224.891C179.978 224.745 179.704 224.519 179.495 224.214C179.287 223.91 179.182 223.527 179.182 223.066V215.534ZM187.014 225.154C186.298 225.154 185.673 224.99 185.139 224.662C184.606 224.334 184.192 223.875 183.897 223.285C183.602 222.695 183.454 222.005 183.454 221.217C183.454 220.424 183.602 219.732 183.897 219.138C184.192 218.545 184.606 218.085 185.139 217.756C185.673 217.428 186.298 217.264 187.014 217.264C187.73 217.264 188.354 217.428 188.888 217.756C189.422 218.085 189.836 218.545 190.131 219.138C190.426 219.732 190.573 220.424 190.573 221.217C190.573 222.005 190.426 222.695 190.131 223.285C189.836 223.875 189.422 224.334 188.888 224.662C188.354 224.99 187.73 225.154 187.014 225.154ZM187.019 223.906C187.483 223.906 187.867 223.784 188.172 223.538C188.477 223.293 188.702 222.967 188.848 222.559C188.997 222.151 189.072 221.702 189.072 221.212C189.072 220.724 188.997 220.277 188.848 219.869C188.702 219.458 188.477 219.129 188.172 218.88C187.867 218.631 187.483 218.507 187.019 218.507C186.551 218.507 186.164 218.631 185.855 218.88C185.55 219.129 185.323 219.458 185.174 219.869C185.028 220.277 184.956 220.724 184.956 221.212C184.956 221.702 185.028 222.151 185.174 222.559C185.323 222.967 185.55 223.293 185.855 223.538C186.164 223.784 186.551 223.906 187.019 223.906ZM197.955 219.228L196.608 219.467C196.551 219.294 196.462 219.13 196.339 218.974C196.22 218.819 196.057 218.691 195.852 218.592C195.647 218.492 195.39 218.442 195.081 218.442C194.66 218.442 194.309 218.537 194.027 218.726C193.746 218.911 193.605 219.152 193.605 219.447C193.605 219.702 193.699 219.907 193.888 220.063C194.077 220.219 194.382 220.347 194.803 220.446L196.016 220.724C196.719 220.887 197.242 221.137 197.587 221.475C197.932 221.813 198.104 222.252 198.104 222.793C198.104 223.25 197.972 223.658 197.706 224.016C197.445 224.37 197.078 224.649 196.608 224.851C196.14 225.053 195.598 225.154 194.982 225.154C194.127 225.154 193.429 224.972 192.889 224.607C192.349 224.239 192.017 223.717 191.895 223.041L193.331 222.822C193.421 223.197 193.605 223.48 193.883 223.673C194.162 223.862 194.525 223.956 194.972 223.956C195.459 223.956 195.849 223.855 196.14 223.653C196.432 223.447 196.578 223.197 196.578 222.902C196.578 222.663 196.488 222.463 196.309 222.3C196.134 222.138 195.864 222.015 195.499 221.933L194.206 221.649C193.494 221.487 192.967 221.228 192.625 220.874C192.287 220.519 192.118 220.07 192.118 219.526C192.118 219.076 192.244 218.681 192.496 218.343C192.748 218.005 193.096 217.741 193.54 217.553C193.984 217.36 194.493 217.264 195.066 217.264C195.892 217.264 196.541 217.443 197.015 217.801C197.489 218.156 197.803 218.631 197.955 219.228Z" fill="white"/>
<path d="M42.0916 277V268.273H45.0404C45.7251 268.273 46.2848 268.396 46.7194 268.643C47.1569 268.888 47.4808 269.219 47.691 269.636C47.9012 270.054 48.0064 270.52 48.0064 271.034C48.0064 271.548 47.9012 272.016 47.691 272.436C47.4836 272.857 47.1626 273.192 46.7279 273.442C46.2933 273.689 45.7365 273.812 45.0575 273.812H42.9439V272.875H45.0234C45.4922 272.875 45.8686 272.794 46.1527 272.632C46.4368 272.47 46.6427 272.251 46.7706 271.976C46.9012 271.697 46.9666 271.384 46.9666 271.034C46.9666 270.685 46.9012 270.372 46.7706 270.097C46.6427 269.821 46.4353 269.605 46.1484 269.449C45.8615 269.29 45.4808 269.21 45.0064 269.21H43.1484V277H42.0916ZM54.2974 274.324V270.455H55.3031V277H54.2974V275.892H54.2292C54.0758 276.224 53.8372 276.507 53.5133 276.74C53.1895 276.97 52.7804 277.085 52.286 277.085C51.877 277.085 51.5133 276.996 51.1951 276.817C50.877 276.635 50.627 276.362 50.4451 275.999C50.2633 275.632 50.1724 275.17 50.1724 274.614V270.455H51.1781V274.545C51.1781 275.023 51.3116 275.403 51.5787 275.688C51.8485 275.972 52.1923 276.114 52.6099 276.114C52.8599 276.114 53.1142 276.05 53.3727 275.922C53.6341 275.794 53.8528 275.598 54.0289 275.334C54.2079 275.07 54.2974 274.733 54.2974 274.324ZM57.8814 277V268.273H58.8871V271.494H58.9723C59.0462 271.381 59.1485 271.236 59.2792 271.06C59.4127 270.881 59.603 270.722 59.8502 270.582C60.1002 270.44 60.4382 270.369 60.8644 270.369C61.4155 270.369 61.9013 270.507 62.3218 270.783C62.7422 271.058 63.0703 271.449 63.3061 271.955C63.5419 272.46 63.6598 273.057 63.6598 273.744C63.6598 274.438 63.5419 275.038 63.3061 275.547C63.0703 276.053 62.7436 276.445 62.326 276.723C61.9084 276.999 61.4269 277.136 60.8814 277.136C60.461 277.136 60.1243 277.067 59.8715 276.928C59.6186 276.786 59.424 276.625 59.2877 276.446C59.1513 276.264 59.0462 276.114 58.9723 275.994H58.853V277H57.8814ZM58.8701 273.727C58.8701 274.222 58.9425 274.658 59.0874 275.036C59.2323 275.411 59.4439 275.705 59.7223 275.918C60.0007 276.128 60.3417 276.233 60.7451 276.233C61.1655 276.233 61.5164 276.122 61.7976 275.901C62.0817 275.676 62.2948 275.375 62.4368 274.997C62.5817 274.616 62.6542 274.193 62.6542 273.727C62.6542 273.267 62.5831 272.852 62.4411 272.483C62.3019 272.111 62.0902 271.817 61.8061 271.601C61.5249 271.382 61.1712 271.273 60.7451 271.273C60.336 271.273 59.9922 271.376 59.7138 271.584C59.4354 271.788 59.2252 272.075 59.0831 272.445C58.9411 272.811 58.8701 273.239 58.8701 273.727ZM66.8039 268.273V277H65.7982V268.273H66.8039ZM69.2458 277V270.455H70.2515V277H69.2458ZM69.7572 269.364C69.5612 269.364 69.3922 269.297 69.2501 269.163C69.1109 269.03 69.0413 268.869 69.0413 268.682C69.0413 268.494 69.1109 268.334 69.2501 268.2C69.3922 268.067 69.5612 268 69.7572 268C69.9532 268 70.1208 268.067 70.2601 268.2C70.4021 268.334 70.4731 268.494 70.4731 268.682C70.4731 268.869 70.4021 269.03 70.2601 269.163C70.1208 269.297 69.9532 269.364 69.7572 269.364ZM77.3299 271.92L76.4265 272.176C76.3696 272.026 76.2858 271.879 76.175 271.737C76.0671 271.592 75.9194 271.473 75.7319 271.379C75.5444 271.286 75.3043 271.239 75.0117 271.239C74.6111 271.239 74.2773 271.331 74.0103 271.516C73.7461 271.697 73.614 271.929 73.614 272.21C73.614 272.46 73.7049 272.658 73.8867 272.803C74.0685 272.947 74.3526 273.068 74.739 273.165L75.7105 273.403C76.2958 273.545 76.7319 273.763 77.0188 274.055C77.3057 274.345 77.4492 274.719 77.4492 275.176C77.4492 275.551 77.3412 275.886 77.1253 276.182C76.9123 276.477 76.614 276.71 76.2304 276.881C75.8469 277.051 75.4009 277.136 74.8924 277.136C74.2248 277.136 73.6722 276.991 73.2347 276.702C72.7972 276.412 72.5202 275.989 72.4037 275.432L73.3583 275.193C73.4492 275.545 73.6211 275.81 73.8739 275.986C74.1296 276.162 74.4634 276.25 74.8753 276.25C75.3441 276.25 75.7162 276.151 75.9918 275.952C76.2702 275.75 76.4094 275.509 76.4094 275.227C76.4094 275 76.3299 274.81 76.1708 274.656C76.0117 274.5 75.7674 274.384 75.4378 274.307L74.3469 274.051C73.7475 273.909 73.3071 273.689 73.0259 273.391C72.7475 273.089 72.6083 272.713 72.6083 272.261C72.6083 271.892 72.712 271.565 72.9194 271.281C73.1296 270.997 73.4151 270.774 73.7759 270.612C74.1395 270.45 74.5515 270.369 75.0117 270.369C75.6594 270.369 76.1679 270.511 76.5373 270.795C76.9094 271.08 77.1736 271.455 77.3299 271.92ZM80.5687 273.062V277H79.563V268.273H80.5687V271.477H80.6539C80.8074 271.139 81.0375 270.871 81.3443 270.672C81.6539 270.47 82.0659 270.369 82.5801 270.369C83.0261 270.369 83.4167 270.459 83.752 270.638C84.0872 270.814 84.3471 271.085 84.5318 271.452C84.7193 271.815 84.813 272.278 84.813 272.841V277H83.8074V272.909C83.8074 272.389 83.6724 271.987 83.4025 271.703C83.1355 271.416 82.7647 271.273 82.2903 271.273C81.9608 271.273 81.6653 271.342 81.4039 271.482C81.1454 271.621 80.9409 271.824 80.7903 272.091C80.6426 272.358 80.5687 272.682 80.5687 273.062ZM89.9972 277.136C89.3665 277.136 88.8225 276.997 88.3651 276.719C87.9105 276.438 87.5597 276.045 87.3125 275.543C87.0682 275.037 86.9461 274.449 86.9461 273.778C86.9461 273.108 87.0682 272.517 87.3125 272.006C87.5597 271.491 87.9034 271.091 88.3438 270.804C88.787 270.514 89.304 270.369 89.8949 270.369C90.2358 270.369 90.5725 270.426 90.9049 270.54C91.2373 270.653 91.5398 270.838 91.8125 271.094C92.0853 271.347 92.3026 271.682 92.4645 272.099C92.6265 272.517 92.7074 273.031 92.7074 273.642V274.068H87.662V273.199H91.6847C91.6847 272.83 91.6108 272.5 91.4631 272.21C91.3182 271.92 91.1108 271.692 90.8409 271.524C90.5739 271.357 90.2586 271.273 89.8949 271.273C89.4944 271.273 89.1478 271.372 88.8552 271.571C88.5654 271.767 88.3424 272.023 88.1861 272.338C88.0299 272.653 87.9517 272.991 87.9517 273.352V273.932C87.9517 274.426 88.037 274.845 88.2074 275.189C88.3807 275.53 88.6208 275.79 88.9276 275.969C89.2344 276.145 89.5909 276.233 89.9972 276.233C90.2614 276.233 90.5 276.196 90.7131 276.122C90.929 276.045 91.1151 275.932 91.2713 275.781C91.4276 275.628 91.5483 275.437 91.6336 275.21L92.6052 275.483C92.5029 275.812 92.331 276.102 92.0895 276.352C91.848 276.599 91.5498 276.793 91.1946 276.932C90.8395 277.068 90.4404 277.136 89.9972 277.136ZM97.3088 277.136C96.7634 277.136 96.2819 276.999 95.8642 276.723C95.4466 276.445 95.1199 276.053 94.8841 275.547C94.6483 275.038 94.5304 274.438 94.5304 273.744C94.5304 273.057 94.6483 272.46 94.8841 271.955C95.1199 271.449 95.448 271.058 95.8685 270.783C96.289 270.507 96.7748 270.369 97.3259 270.369C97.752 270.369 98.0887 270.44 98.3358 270.582C98.5858 270.722 98.7762 270.881 98.9069 271.06C99.0404 271.236 99.1441 271.381 99.2179 271.494H99.3032V268.273H100.309V277H99.3373V275.994H99.2179C99.1441 276.114 99.039 276.264 98.9026 276.446C98.7662 276.625 98.5716 276.786 98.3188 276.928C98.0659 277.067 97.7293 277.136 97.3088 277.136ZM97.4452 276.233C97.8486 276.233 98.1895 276.128 98.4679 275.918C98.7463 275.705 98.958 275.411 99.1029 275.036C99.2478 274.658 99.3202 274.222 99.3202 273.727C99.3202 273.239 99.2492 272.811 99.1071 272.445C98.9651 272.075 98.7549 271.788 98.4765 271.584C98.198 271.376 97.8543 271.273 97.4452 271.273C97.0191 271.273 96.664 271.382 96.3799 271.601C96.0986 271.817 95.887 272.111 95.7449 272.483C95.6057 272.852 95.5361 273.267 95.5361 273.727C95.5361 274.193 95.6071 274.616 95.7492 274.997C95.8941 275.375 96.1071 275.676 96.3884 275.901C96.6725 276.122 97.0248 276.233 97.4452 276.233ZM109.524 277.136C108.911 277.136 108.382 276.991 107.939 276.702C107.496 276.412 107.155 276.013 106.917 275.504C106.678 274.996 106.559 274.415 106.559 273.761C106.559 273.097 106.681 272.51 106.925 272.001C107.172 271.49 107.516 271.091 107.956 270.804C108.399 270.514 108.917 270.369 109.507 270.369C109.968 270.369 110.382 270.455 110.752 270.625C111.121 270.795 111.424 271.034 111.659 271.341C111.895 271.648 112.042 272.006 112.098 272.415H111.093C111.016 272.116 110.845 271.852 110.581 271.622C110.32 271.389 109.968 271.273 109.524 271.273C109.132 271.273 108.789 271.375 108.493 271.58C108.201 271.781 107.972 272.067 107.807 272.436C107.645 272.803 107.564 273.233 107.564 273.727C107.564 274.233 107.644 274.673 107.803 275.048C107.965 275.423 108.192 275.714 108.485 275.922C108.78 276.129 109.127 276.233 109.524 276.233C109.786 276.233 110.023 276.188 110.236 276.097C110.449 276.006 110.63 275.875 110.777 275.705C110.925 275.534 111.03 275.33 111.093 275.091H112.098C112.042 275.477 111.901 275.825 111.676 276.135C111.455 276.442 111.161 276.686 110.794 276.868C110.431 277.047 110.007 277.136 109.524 277.136ZM116.828 277.136C116.237 277.136 115.718 276.996 115.272 276.714C114.829 276.433 114.482 276.04 114.232 275.534C113.985 275.028 113.862 274.437 113.862 273.761C113.862 273.08 113.985 272.484 114.232 271.976C114.482 271.467 114.829 271.072 115.272 270.791C115.718 270.51 116.237 270.369 116.828 270.369C117.419 270.369 117.936 270.51 118.379 270.791C118.825 271.072 119.171 271.467 119.419 271.976C119.669 272.484 119.794 273.08 119.794 273.761C119.794 274.437 119.669 275.028 119.419 275.534C119.171 276.04 118.825 276.433 118.379 276.714C117.936 276.996 117.419 277.136 116.828 277.136ZM116.828 276.233C117.276 276.233 117.646 276.118 117.936 275.888C118.225 275.658 118.44 275.355 118.579 274.98C118.718 274.605 118.788 274.199 118.788 273.761C118.788 273.324 118.718 272.916 118.579 272.538C118.44 272.161 118.225 271.855 117.936 271.622C117.646 271.389 117.276 271.273 116.828 271.273C116.379 271.273 116.009 271.389 115.72 271.622C115.43 271.855 115.215 272.161 115.076 272.538C114.937 272.916 114.867 273.324 114.867 273.761C114.867 274.199 114.937 274.605 115.076 274.98C115.215 275.355 115.43 275.658 115.72 275.888C116.009 276.118 116.379 276.233 116.828 276.233ZM122.934 273.062V277H121.929V270.455H122.9V271.477H122.985C123.139 271.145 123.372 270.878 123.684 270.676C123.997 270.472 124.4 270.369 124.895 270.369C125.338 270.369 125.726 270.46 126.058 270.642C126.39 270.821 126.649 271.094 126.833 271.46C127.018 271.824 127.11 272.284 127.11 272.841V277H126.105V272.909C126.105 272.395 125.971 271.994 125.704 271.707C125.437 271.418 125.071 271.273 124.605 271.273C124.284 271.273 123.997 271.342 123.744 271.482C123.494 271.621 123.297 271.824 123.152 272.091C123.007 272.358 122.934 272.682 122.934 273.062ZM132.395 270.455V271.307H129.003V270.455H132.395ZM129.991 268.886H130.997V275.125C130.997 275.409 131.038 275.622 131.121 275.764C131.206 275.903 131.314 275.997 131.445 276.045C131.578 276.091 131.719 276.114 131.866 276.114C131.977 276.114 132.068 276.108 132.139 276.097C132.21 276.082 132.267 276.071 132.31 276.062L132.514 276.966C132.446 276.991 132.351 277.017 132.229 277.043C132.106 277.071 131.952 277.085 131.764 277.085C131.48 277.085 131.202 277.024 130.929 276.902C130.659 276.78 130.435 276.594 130.256 276.344C130.079 276.094 129.991 275.778 129.991 275.398V268.886ZM137.182 277.136C136.551 277.136 136.007 276.997 135.549 276.719C135.095 276.438 134.744 276.045 134.497 275.543C134.253 275.037 134.13 274.449 134.13 273.778C134.13 273.108 134.253 272.517 134.497 272.006C134.744 271.491 135.088 271.091 135.528 270.804C135.971 270.514 136.488 270.369 137.079 270.369C137.42 270.369 137.757 270.426 138.089 270.54C138.422 270.653 138.724 270.838 138.997 271.094C139.27 271.347 139.487 271.682 139.649 272.099C139.811 272.517 139.892 273.031 139.892 273.642V274.068H134.846V273.199H138.869C138.869 272.83 138.795 272.5 138.647 272.21C138.503 271.92 138.295 271.692 138.025 271.524C137.758 271.357 137.443 271.273 137.079 271.273C136.679 271.273 136.332 271.372 136.04 271.571C135.75 271.767 135.527 272.023 135.37 272.338C135.214 272.653 135.136 272.991 135.136 273.352V273.932C135.136 274.426 135.221 274.845 135.392 275.189C135.565 275.53 135.805 275.79 136.112 275.969C136.419 276.145 136.775 276.233 137.182 276.233C137.446 276.233 137.684 276.196 137.897 276.122C138.113 276.045 138.299 275.932 138.456 275.781C138.612 275.628 138.733 275.437 138.818 275.21L139.79 275.483C139.687 275.812 139.515 276.102 139.274 276.352C139.032 276.599 138.734 276.793 138.379 276.932C138.024 277.068 137.625 277.136 137.182 277.136ZM143.027 273.062V277H142.022V270.455H142.993V271.477H143.078C143.232 271.145 143.465 270.878 143.777 270.676C144.09 270.472 144.493 270.369 144.988 270.369C145.431 270.369 145.819 270.46 146.151 270.642C146.483 270.821 146.742 271.094 146.926 271.46C147.111 271.824 147.203 272.284 147.203 272.841V277H146.198V272.909C146.198 272.395 146.064 271.994 145.797 271.707C145.53 271.418 145.164 271.273 144.698 271.273C144.377 271.273 144.09 271.342 143.837 271.482C143.587 271.621 143.39 271.824 143.245 272.091C143.1 272.358 143.027 272.682 143.027 273.062ZM152.488 270.455V271.307H149.096V270.455H152.488ZM150.084 268.886H151.09V275.125C151.09 275.409 151.131 275.622 151.214 275.764C151.299 275.903 151.407 275.997 151.537 276.045C151.671 276.091 151.812 276.114 151.959 276.114C152.07 276.114 152.161 276.108 152.232 276.097C152.303 276.082 152.36 276.071 152.403 276.062L152.607 276.966C152.539 276.991 152.444 277.017 152.322 277.043C152.199 277.071 152.045 277.085 151.857 277.085C151.573 277.085 151.295 277.024 151.022 276.902C150.752 276.78 150.528 276.594 150.349 276.344C150.172 276.094 150.084 275.778 150.084 275.398V268.886ZM158.576 277V270.455H159.581V277H158.576ZM159.087 269.364C158.891 269.364 158.722 269.297 158.58 269.163C158.441 269.03 158.371 268.869 158.371 268.682C158.371 268.494 158.441 268.334 158.58 268.2C158.722 268.067 158.891 268 159.087 268C159.283 268 159.451 268.067 159.59 268.2C159.732 268.334 159.803 268.494 159.803 268.682C159.803 268.869 159.732 269.03 159.59 269.163C159.451 269.297 159.283 269.364 159.087 269.364ZM166.66 271.92L165.756 272.176C165.699 272.026 165.616 271.879 165.505 271.737C165.397 271.592 165.249 271.473 165.062 271.379C164.874 271.286 164.634 271.239 164.341 271.239C163.941 271.239 163.607 271.331 163.34 271.516C163.076 271.697 162.944 271.929 162.944 272.21C162.944 272.46 163.035 272.658 163.216 272.803C163.398 272.947 163.682 273.068 164.069 273.165L165.04 273.403C165.625 273.545 166.062 273.763 166.348 274.055C166.635 274.345 166.779 274.719 166.779 275.176C166.779 275.551 166.671 275.886 166.455 276.182C166.242 276.477 165.944 276.71 165.56 276.881C165.177 277.051 164.731 277.136 164.222 277.136C163.554 277.136 163.002 276.991 162.564 276.702C162.127 276.412 161.85 275.989 161.733 275.432L162.688 275.193C162.779 275.545 162.951 275.81 163.204 275.986C163.459 276.162 163.793 276.25 164.205 276.25C164.674 276.25 165.046 276.151 165.321 275.952C165.6 275.75 165.739 275.509 165.739 275.227C165.739 275 165.66 274.81 165.5 274.656C165.341 274.5 165.097 274.384 164.768 274.307L163.677 274.051C163.077 273.909 162.637 273.689 162.356 273.391C162.077 273.089 161.938 272.713 161.938 272.261C161.938 271.892 162.042 271.565 162.249 271.281C162.459 270.997 162.745 270.774 163.106 270.612C163.469 270.45 163.881 270.369 164.341 270.369C164.989 270.369 165.498 270.511 165.867 270.795C166.239 271.08 166.503 271.455 166.66 271.92ZM172.868 277V270.455H173.839V271.443H173.907C174.027 271.119 174.243 270.857 174.555 270.655C174.868 270.453 175.22 270.352 175.612 270.352C175.686 270.352 175.778 270.354 175.889 270.357C176 270.359 176.084 270.364 176.14 270.369V271.392C176.106 271.384 176.028 271.371 175.906 271.354C175.787 271.334 175.66 271.324 175.527 271.324C175.209 271.324 174.925 271.391 174.675 271.524C174.427 271.655 174.231 271.837 174.086 272.07C173.944 272.3 173.873 272.562 173.873 272.858V277H172.868ZM180.478 277.136C179.847 277.136 179.303 276.997 178.846 276.719C178.391 276.438 178.04 276.045 177.793 275.543C177.549 275.037 177.427 274.449 177.427 273.778C177.427 273.108 177.549 272.517 177.793 272.006C178.04 271.491 178.384 271.091 178.824 270.804C179.267 270.514 179.784 270.369 180.375 270.369C180.716 270.369 181.053 270.426 181.385 270.54C181.718 270.653 182.02 270.838 182.293 271.094C182.566 271.347 182.783 271.682 182.945 272.099C183.107 272.517 183.188 273.031 183.188 273.642V274.068H178.142V273.199H182.165C182.165 272.83 182.091 272.5 181.944 272.21C181.799 271.92 181.591 271.692 181.321 271.524C181.054 271.357 180.739 271.273 180.375 271.273C179.975 271.273 179.628 271.372 179.336 271.571C179.046 271.767 178.823 272.023 178.667 272.338C178.51 272.653 178.432 272.991 178.432 273.352V273.932C178.432 274.426 178.517 274.845 178.688 275.189C178.861 275.53 179.101 275.79 179.408 275.969C179.715 276.145 180.071 276.233 180.478 276.233C180.742 276.233 180.981 276.196 181.194 276.122C181.409 276.045 181.596 275.932 181.752 275.781C181.908 275.628 182.029 275.437 182.114 275.21L183.086 275.483C182.983 275.812 182.811 276.102 182.57 276.352C182.329 276.599 182.03 276.793 181.675 276.932C181.32 277.068 180.921 277.136 180.478 277.136ZM189.784 279.455V275.994H189.698C189.625 276.114 189.519 276.264 189.383 276.446C189.247 276.625 189.052 276.786 188.799 276.928C188.546 277.067 188.21 277.136 187.789 277.136C187.244 277.136 186.762 276.999 186.345 276.723C185.927 276.445 185.6 276.053 185.365 275.547C185.129 275.038 185.011 274.438 185.011 273.744C185.011 273.057 185.129 272.46 185.365 271.955C185.6 271.449 185.929 271.058 186.349 270.783C186.769 270.507 187.255 270.369 187.806 270.369C188.233 270.369 188.569 270.44 188.816 270.582C189.066 270.722 189.257 270.881 189.387 271.06C189.521 271.236 189.625 271.381 189.698 271.494H189.818V270.455H190.789V279.455H189.784ZM187.926 276.233C188.329 276.233 188.67 276.128 188.948 275.918C189.227 275.705 189.438 275.411 189.583 275.036C189.728 274.658 189.801 274.222 189.801 273.727C189.801 273.239 189.73 272.811 189.588 272.445C189.446 272.075 189.235 271.788 188.957 271.584C188.679 271.376 188.335 271.273 187.926 271.273C187.5 271.273 187.144 271.382 186.86 271.601C186.579 271.817 186.367 272.111 186.225 272.483C186.086 272.852 186.017 273.267 186.017 273.727C186.017 274.193 186.088 274.616 186.23 274.997C186.375 275.375 186.588 275.676 186.869 275.901C187.153 276.122 187.505 276.233 187.926 276.233ZM197.355 274.324V270.455H198.361V277H197.355V275.892H197.287C197.134 276.224 196.895 276.507 196.571 276.74C196.247 276.97 195.838 277.085 195.344 277.085C194.935 277.085 194.571 276.996 194.253 276.817C193.935 276.635 193.685 276.362 193.503 275.999C193.321 275.632 193.23 275.17 193.23 274.614V270.455H194.236V274.545C194.236 275.023 194.369 275.403 194.636 275.688C194.906 275.972 195.25 276.114 195.668 276.114C195.918 276.114 196.172 276.05 196.43 275.922C196.692 275.794 196.911 275.598 197.087 275.334C197.266 275.07 197.355 274.733 197.355 274.324ZM200.803 277V270.455H201.809V277H200.803ZM201.314 269.364C201.118 269.364 200.949 269.297 200.807 269.163C200.668 269.03 200.598 268.869 200.598 268.682C200.598 268.494 200.668 268.334 200.807 268.2C200.949 268.067 201.118 268 201.314 268C201.51 268 201.678 268.067 201.817 268.2C201.959 268.334 202.03 268.494 202.03 268.682C202.03 268.869 201.959 269.03 201.817 269.163C201.678 269.297 201.51 269.364 201.314 269.364ZM204.251 277V270.455H205.222V271.443H205.29C205.41 271.119 205.626 270.857 205.938 270.655C206.251 270.453 206.603 270.352 206.995 270.352C207.069 270.352 207.161 270.354 207.272 270.357C207.383 270.359 207.466 270.364 207.523 270.369V271.392C207.489 271.384 207.411 271.371 207.289 271.354C207.17 271.334 207.043 271.324 206.91 271.324C206.591 271.324 206.307 271.391 206.057 271.524C205.81 271.655 205.614 271.837 205.469 272.07C205.327 272.3 205.256 272.562 205.256 272.858V277H204.251ZM211.86 277.136C211.23 277.136 210.686 276.997 210.228 276.719C209.774 276.438 209.423 276.045 209.176 275.543C208.932 275.037 208.809 274.449 208.809 273.778C208.809 273.108 208.932 272.517 209.176 272.006C209.423 271.491 209.767 271.091 210.207 270.804C210.65 270.514 211.167 270.369 211.758 270.369C212.099 270.369 212.436 270.426 212.768 270.54C213.101 270.653 213.403 270.838 213.676 271.094C213.949 271.347 214.166 271.682 214.328 272.099C214.49 272.517 214.571 273.031 214.571 273.642V274.068H209.525V273.199H213.548C213.548 272.83 213.474 272.5 213.326 272.21C213.182 271.92 212.974 271.692 212.704 271.524C212.437 271.357 212.122 271.273 211.758 271.273C211.358 271.273 211.011 271.372 210.718 271.571C210.429 271.767 210.206 272.023 210.049 272.338C209.893 272.653 209.815 272.991 209.815 273.352V273.932C209.815 274.426 209.9 274.845 210.071 275.189C210.244 275.53 210.484 275.79 210.791 275.969C211.098 276.145 211.454 276.233 211.86 276.233C212.125 276.233 212.363 276.196 212.576 276.122C212.792 276.045 212.978 275.932 213.135 275.781C213.291 275.628 213.412 275.437 213.497 275.21L214.468 275.483C214.366 275.812 214.194 276.102 213.953 276.352C213.711 276.599 213.413 276.793 213.058 276.932C212.703 277.068 212.304 277.136 211.86 277.136ZM219.172 277.136C218.627 277.136 218.145 276.999 217.728 276.723C217.31 276.445 216.983 276.053 216.747 275.547C216.512 275.038 216.394 274.438 216.394 273.744C216.394 273.057 216.512 272.46 216.747 271.955C216.983 271.449 217.311 271.058 217.732 270.783C218.152 270.507 218.638 270.369 219.189 270.369C219.615 270.369 219.952 270.44 220.199 270.582C220.449 270.722 220.639 270.881 220.77 271.06C220.904 271.236 221.007 271.381 221.081 271.494H221.166V268.273H222.172V277H221.201V275.994H221.081C221.007 276.114 220.902 276.264 220.766 276.446C220.63 276.625 220.435 276.786 220.182 276.928C219.929 277.067 219.593 277.136 219.172 277.136ZM219.308 276.233C219.712 276.233 220.053 276.128 220.331 275.918C220.61 275.705 220.821 275.411 220.966 275.036C221.111 274.658 221.183 274.222 221.183 273.727C221.183 273.239 221.112 272.811 220.97 272.445C220.828 272.075 220.618 271.788 220.34 271.584C220.061 271.376 219.718 271.273 219.308 271.273C218.882 271.273 218.527 271.382 218.243 271.601C217.962 271.817 217.75 272.111 217.608 272.483C217.469 272.852 217.399 273.267 217.399 273.727C217.399 274.193 217.47 274.616 217.612 274.997C217.757 275.375 217.97 275.676 218.252 275.901C218.536 276.122 218.888 276.233 219.308 276.233ZM231.575 270.455V271.307H228.183V270.455H231.575ZM229.172 268.886H230.178V275.125C230.178 275.409 230.219 275.622 230.301 275.764C230.386 275.903 230.494 275.997 230.625 276.045C230.758 276.091 230.899 276.114 231.047 276.114C231.158 276.114 231.249 276.108 231.32 276.097C231.391 276.082 231.447 276.071 231.49 276.062L231.695 276.966C231.626 276.991 231.531 277.017 231.409 277.043C231.287 277.071 231.132 277.085 230.945 277.085C230.66 277.085 230.382 277.024 230.109 276.902C229.839 276.78 229.615 276.594 229.436 276.344C229.26 276.094 229.172 275.778 229.172 275.398V268.886ZM236.277 277.136C235.686 277.136 235.167 276.996 234.721 276.714C234.278 276.433 233.932 276.04 233.682 275.534C233.434 275.028 233.311 274.437 233.311 273.761C233.311 273.08 233.434 272.484 233.682 271.976C233.932 271.467 234.278 271.072 234.721 270.791C235.167 270.51 235.686 270.369 236.277 270.369C236.868 270.369 237.385 270.51 237.828 270.791C238.274 271.072 238.621 271.467 238.868 271.976C239.118 272.484 239.243 273.08 239.243 273.761C239.243 274.437 239.118 275.028 238.868 275.534C238.621 276.04 238.274 276.433 237.828 276.714C237.385 276.996 236.868 277.136 236.277 277.136ZM236.277 276.233C236.726 276.233 237.095 276.118 237.385 275.888C237.675 275.658 237.889 275.355 238.028 274.98C238.167 274.605 238.237 274.199 238.237 273.761C238.237 273.324 238.167 272.916 238.028 272.538C237.889 272.161 237.675 271.855 237.385 271.622C237.095 271.389 236.726 271.273 236.277 271.273C235.828 271.273 235.459 271.389 235.169 271.622C234.879 271.855 234.665 272.161 234.525 272.538C234.386 272.916 234.317 273.324 234.317 273.761C234.317 274.199 234.386 274.605 234.525 274.98C234.665 275.355 234.879 275.658 235.169 275.888C235.459 276.118 235.828 276.233 236.277 276.233ZM245.353 277V270.455H246.324V271.477H246.41C246.546 271.128 246.766 270.857 247.07 270.663C247.374 270.467 247.739 270.369 248.165 270.369C248.597 270.369 248.957 270.467 249.244 270.663C249.533 270.857 249.759 271.128 249.921 271.477H249.989C250.157 271.139 250.408 270.871 250.744 270.672C251.079 270.47 251.481 270.369 251.949 270.369C252.535 270.369 253.013 270.553 253.386 270.919C253.758 271.283 253.944 271.849 253.944 272.619V277H252.938V272.619C252.938 272.136 252.806 271.791 252.542 271.584C252.278 271.376 251.967 271.273 251.609 271.273C251.148 271.273 250.792 271.412 250.539 271.69C250.286 271.966 250.16 272.315 250.16 272.739V277H249.137V272.517C249.137 272.145 249.016 271.845 248.775 271.618C248.533 271.388 248.222 271.273 247.842 271.273C247.58 271.273 247.336 271.342 247.109 271.482C246.884 271.621 246.702 271.814 246.563 272.061C246.427 272.305 246.359 272.588 246.359 272.909V277H245.353ZM259.127 277.136C258.496 277.136 257.952 276.997 257.495 276.719C257.04 276.438 256.689 276.045 256.442 275.543C256.198 275.037 256.076 274.449 256.076 273.778C256.076 273.108 256.198 272.517 256.442 272.006C256.689 271.491 257.033 271.091 257.473 270.804C257.917 270.514 258.434 270.369 259.025 270.369C259.366 270.369 259.702 270.426 260.035 270.54C260.367 270.653 260.669 270.838 260.942 271.094C261.215 271.347 261.432 271.682 261.594 272.099C261.756 272.517 261.837 273.031 261.837 273.642V274.068H256.792V273.199H260.814C260.814 272.83 260.741 272.5 260.593 272.21C260.448 271.92 260.241 271.692 259.971 271.524C259.704 271.357 259.388 271.273 259.025 271.273C258.624 271.273 258.277 271.372 257.985 271.571C257.695 271.767 257.472 272.023 257.316 272.338C257.16 272.653 257.081 272.991 257.081 273.352V273.932C257.081 274.426 257.167 274.845 257.337 275.189C257.51 275.53 257.75 275.79 258.057 275.969C258.364 276.145 258.721 276.233 259.127 276.233C259.391 276.233 259.63 276.196 259.843 276.122C260.059 276.045 260.245 275.932 260.401 275.781C260.557 275.628 260.678 275.437 260.763 275.21L261.735 275.483C261.633 275.812 261.461 276.102 261.219 276.352C260.978 276.599 260.679 276.793 260.324 276.932C259.969 277.068 259.57 277.136 259.127 277.136ZM266.711 277.136C266.081 277.136 265.537 276.997 265.079 276.719C264.625 276.438 264.274 276.045 264.027 275.543C263.782 275.037 263.66 274.449 263.66 273.778C263.66 273.108 263.782 272.517 264.027 272.006C264.274 271.491 264.618 271.091 265.058 270.804C265.501 270.514 266.018 270.369 266.609 270.369C266.95 270.369 267.287 270.426 267.619 270.54C267.951 270.653 268.254 270.838 268.527 271.094C268.799 271.347 269.017 271.682 269.179 272.099C269.341 272.517 269.421 273.031 269.421 273.642V274.068H264.376V273.199H268.399C268.399 272.83 268.325 272.5 268.177 272.21C268.032 271.92 267.825 271.692 267.555 271.524C267.288 271.357 266.973 271.273 266.609 271.273C266.208 271.273 265.862 271.372 265.569 271.571C265.279 271.767 265.056 272.023 264.9 272.338C264.744 272.653 264.666 272.991 264.666 273.352V273.932C264.666 274.426 264.751 274.845 264.921 275.189C265.095 275.53 265.335 275.79 265.642 275.969C265.948 276.145 266.305 276.233 266.711 276.233C266.975 276.233 267.214 276.196 267.427 276.122C267.643 276.045 267.829 275.932 267.985 275.781C268.142 275.628 268.262 275.437 268.348 275.21L269.319 275.483C269.217 275.812 269.045 276.102 268.804 276.352C268.562 276.599 268.264 276.793 267.909 276.932C267.554 277.068 267.154 277.136 266.711 277.136ZM274.398 270.455V271.307H271.006V270.455H274.398ZM271.994 268.886H273V275.125C273 275.409 273.041 275.622 273.124 275.764C273.209 275.903 273.317 275.997 273.448 276.045C273.581 276.091 273.722 276.114 273.869 276.114C273.98 276.114 274.071 276.108 274.142 276.097C274.213 276.082 274.27 276.071 274.313 276.062L274.517 276.966C274.449 276.991 274.354 277.017 274.232 277.043C274.11 277.071 273.955 277.085 273.767 277.085C273.483 277.085 273.205 277.024 272.932 276.902C272.662 276.78 272.438 276.594 272.259 276.344C272.083 276.094 271.994 275.778 271.994 275.398V268.886ZM75.6772 297L73.2908 288.273H74.3647L76.1886 295.381H76.2738L78.1317 288.273H79.3249L81.1829 295.381H81.2681L83.092 288.273H84.1658L81.7795 297H80.6886L78.7624 290.045H78.6942L76.7681 297H75.6772ZM88.0812 297.136C87.4505 297.136 86.9065 296.997 86.4491 296.719C85.9945 296.438 85.6437 296.045 85.3965 295.543C85.1522 295.037 85.03 294.449 85.03 293.778C85.03 293.108 85.1522 292.517 85.3965 292.006C85.6437 291.491 85.9874 291.091 86.4278 290.804C86.871 290.514 87.388 290.369 87.9789 290.369C88.3198 290.369 88.6565 290.426 88.9888 290.54C89.3212 290.653 89.6238 290.838 89.8965 291.094C90.1692 291.347 90.3866 291.682 90.5485 292.099C90.7104 292.517 90.7914 293.031 90.7914 293.642V294.068H85.746V293.199H89.7687C89.7687 292.83 89.6948 292.5 89.5471 292.21C89.4022 291.92 89.1948 291.692 88.9249 291.524C88.6579 291.357 88.3425 291.273 87.9789 291.273C87.5783 291.273 87.2317 291.372 86.9391 291.571C86.6494 291.767 86.4263 292.023 86.2701 292.338C86.1138 292.653 86.0357 292.991 86.0357 293.352V293.932C86.0357 294.426 86.121 294.845 86.2914 295.189C86.4647 295.53 86.7048 295.79 87.0116 295.969C87.3184 296.145 87.6749 296.233 88.0812 296.233C88.3454 296.233 88.584 296.196 88.7971 296.122C89.013 296.045 89.1991 295.932 89.3553 295.781C89.5116 295.628 89.6323 295.437 89.7175 295.21L90.6891 295.483C90.5869 295.812 90.415 296.102 90.1735 296.352C89.932 296.599 89.6337 296.793 89.2786 296.932C88.9235 297.068 88.5244 297.136 88.0812 297.136ZM95.3928 297.136C94.8474 297.136 94.3658 296.999 93.9482 296.723C93.5306 296.445 93.2039 296.053 92.9681 295.547C92.7323 295.038 92.6144 294.438 92.6144 293.744C92.6144 293.057 92.7323 292.46 92.9681 291.955C93.2039 291.449 93.532 291.058 93.9525 290.783C94.3729 290.507 94.8587 290.369 95.4099 290.369C95.836 290.369 96.1727 290.44 96.4198 290.582C96.6698 290.722 96.8602 290.881 96.9908 291.06C97.1244 291.236 97.2281 291.381 97.3019 291.494H97.3871V288.273H98.3928V297H97.4212V295.994H97.3019C97.2281 296.114 97.1229 296.264 96.9866 296.446C96.8502 296.625 96.6556 296.786 96.4028 296.928C96.1499 297.067 95.8133 297.136 95.3928 297.136ZM95.5292 296.233C95.9326 296.233 96.2735 296.128 96.5519 295.918C96.8303 295.705 97.042 295.411 97.1869 295.036C97.3317 294.658 97.4042 294.222 97.4042 293.727C97.4042 293.239 97.3332 292.811 97.1911 292.445C97.0491 292.075 96.8389 291.788 96.5604 291.584C96.282 291.376 95.9383 291.273 95.5292 291.273C95.1031 291.273 94.7479 291.382 94.4639 291.601C94.1826 291.817 93.971 292.111 93.8289 292.483C93.6897 292.852 93.6201 293.267 93.6201 293.727C93.6201 294.193 93.6911 294.616 93.8332 294.997C93.9781 295.375 94.1911 295.676 94.4724 295.901C94.7565 296.122 95.1087 296.233 95.5292 296.233ZM103.446 297.136C102.9 297.136 102.419 296.999 102.001 296.723C101.584 296.445 101.257 296.053 101.021 295.547C100.785 295.038 100.668 294.438 100.668 293.744C100.668 293.057 100.785 292.46 101.021 291.955C101.257 291.449 101.585 291.058 102.006 290.783C102.426 290.507 102.912 290.369 103.463 290.369C103.889 290.369 104.226 290.44 104.473 290.582C104.723 290.722 104.913 290.881 105.044 291.06C105.177 291.236 105.281 291.381 105.355 291.494H105.44V288.273H106.446V297H105.474V295.994H105.355C105.281 296.114 105.176 296.264 105.04 296.446C104.903 296.625 104.709 296.786 104.456 296.928C104.203 297.067 103.866 297.136 103.446 297.136ZM103.582 296.233C103.986 296.233 104.327 296.128 104.605 295.918C104.883 295.705 105.095 295.411 105.24 295.036C105.385 294.658 105.457 294.222 105.457 293.727C105.457 293.239 105.386 292.811 105.244 292.445C105.102 292.075 104.892 291.788 104.614 291.584C104.335 291.376 103.991 291.273 103.582 291.273C103.156 291.273 102.801 291.382 102.517 291.601C102.236 291.817 102.024 292.111 101.882 292.483C101.743 292.852 101.673 293.267 101.673 293.727C101.673 294.193 101.744 294.616 101.886 294.997C102.031 295.375 102.244 295.676 102.525 295.901C102.81 296.122 103.162 296.233 103.582 296.233ZM109.027 297V290.455H110.033V297H109.027ZM109.539 289.364C109.343 289.364 109.174 289.297 109.032 289.163C108.893 289.03 108.823 288.869 108.823 288.682C108.823 288.494 108.893 288.334 109.032 288.2C109.174 288.067 109.343 288 109.539 288C109.735 288 109.902 288.067 110.042 288.2C110.184 288.334 110.255 288.494 110.255 288.682C110.255 288.869 110.184 289.03 110.042 289.163C109.902 289.297 109.735 289.364 109.539 289.364ZM113.481 293.062V297H112.475V290.455H113.447V291.477H113.532C113.685 291.145 113.918 290.878 114.231 290.676C114.543 290.472 114.947 290.369 115.441 290.369C115.884 290.369 116.272 290.46 116.604 290.642C116.937 290.821 117.195 291.094 117.38 291.46C117.565 291.824 117.657 292.284 117.657 292.841V297H116.651V292.909C116.651 292.395 116.518 291.994 116.251 291.707C115.984 291.418 115.617 291.273 115.151 291.273C114.83 291.273 114.543 291.342 114.29 291.482C114.04 291.621 113.843 291.824 113.698 292.091C113.553 292.358 113.481 292.682 113.481 293.062ZM122.737 299.591C122.251 299.591 121.833 299.528 121.484 299.403C121.134 299.281 120.843 299.119 120.61 298.918C120.38 298.719 120.197 298.506 120.061 298.278L120.862 297.716C120.953 297.835 121.068 297.972 121.207 298.125C121.346 298.281 121.536 298.416 121.778 298.53C122.022 298.646 122.342 298.705 122.737 298.705C123.265 298.705 123.701 298.577 124.045 298.321C124.389 298.065 124.561 297.665 124.561 297.119V295.79H124.475C124.401 295.909 124.296 296.057 124.16 296.233C124.026 296.406 123.833 296.561 123.58 296.697C123.33 296.831 122.992 296.898 122.566 296.898C122.038 296.898 121.563 296.773 121.143 296.523C120.725 296.273 120.394 295.909 120.15 295.432C119.909 294.955 119.788 294.375 119.788 293.693C119.788 293.023 119.906 292.439 120.142 291.942C120.377 291.442 120.705 291.055 121.126 290.783C121.546 290.507 122.032 290.369 122.583 290.369C123.009 290.369 123.348 290.44 123.598 290.582C123.85 290.722 124.044 290.881 124.177 291.06C124.313 291.236 124.419 291.381 124.492 291.494H124.595V290.455H125.566V297.188C125.566 297.75 125.438 298.207 125.183 298.56C124.93 298.915 124.589 299.175 124.16 299.339C123.734 299.507 123.259 299.591 122.737 299.591ZM122.703 295.994C123.106 295.994 123.447 295.902 123.725 295.717C124.004 295.533 124.215 295.267 124.36 294.92C124.505 294.574 124.578 294.159 124.578 293.676C124.578 293.205 124.507 292.788 124.365 292.428C124.223 292.067 124.012 291.784 123.734 291.58C123.455 291.375 123.112 291.273 122.703 291.273C122.276 291.273 121.921 291.381 121.637 291.597C121.356 291.812 121.144 292.102 121.002 292.466C120.863 292.83 120.794 293.233 120.794 293.676C120.794 294.131 120.865 294.533 121.007 294.882C121.151 295.229 121.365 295.501 121.646 295.7C121.93 295.896 122.282 295.994 122.703 295.994ZM129.933 297.153C129.519 297.153 129.142 297.075 128.804 296.919C128.466 296.76 128.198 296.531 127.999 296.233C127.8 295.932 127.7 295.568 127.7 295.142C127.7 294.767 127.774 294.463 127.922 294.23C128.07 293.994 128.267 293.81 128.514 293.676C128.761 293.543 129.034 293.443 129.332 293.378C129.634 293.31 129.936 293.256 130.24 293.216C130.638 293.165 130.96 293.126 131.207 293.101C131.457 293.072 131.639 293.026 131.753 292.96C131.869 292.895 131.928 292.781 131.928 292.619V292.585C131.928 292.165 131.813 291.838 131.582 291.605C131.355 291.372 131.01 291.256 130.547 291.256C130.067 291.256 129.69 291.361 129.418 291.571C129.145 291.781 128.953 292.006 128.842 292.244L127.888 291.903C128.058 291.506 128.286 291.196 128.57 290.974C128.857 290.75 129.169 290.594 129.507 290.506C129.848 290.415 130.183 290.369 130.513 290.369C130.723 290.369 130.965 290.395 131.237 290.446C131.513 290.494 131.778 290.595 132.034 290.749C132.293 290.902 132.507 291.134 132.678 291.443C132.848 291.753 132.933 292.168 132.933 292.688V297H131.928V296.114H131.876C131.808 296.256 131.695 296.408 131.536 296.57C131.376 296.732 131.165 296.869 130.901 296.983C130.636 297.097 130.314 297.153 129.933 297.153ZM130.087 296.25C130.484 296.25 130.82 296.172 131.092 296.016C131.368 295.859 131.575 295.658 131.715 295.411C131.857 295.163 131.928 294.903 131.928 294.631V293.71C131.885 293.761 131.791 293.808 131.646 293.851C131.504 293.891 131.34 293.926 131.152 293.957C130.967 293.986 130.787 294.011 130.611 294.034C130.438 294.054 130.297 294.071 130.189 294.085C129.928 294.119 129.683 294.175 129.456 294.251C129.232 294.325 129.05 294.437 128.911 294.588C128.774 294.736 128.706 294.937 128.706 295.193C128.706 295.543 128.835 295.807 129.094 295.986C129.355 296.162 129.686 296.25 130.087 296.25ZM135.369 297V290.455H136.34V291.443H136.409C136.528 291.119 136.744 290.857 137.056 290.655C137.369 290.453 137.721 290.352 138.113 290.352C138.187 290.352 138.279 290.354 138.39 290.357C138.501 290.359 138.585 290.364 138.642 290.369V291.392C138.608 291.384 138.529 291.371 138.407 291.354C138.288 291.334 138.162 291.324 138.028 291.324C137.71 291.324 137.426 291.391 137.176 291.524C136.929 291.655 136.733 291.837 136.588 292.07C136.446 292.3 136.375 292.562 136.375 292.858V297H135.369ZM142.894 297.136C142.303 297.136 141.784 296.996 141.338 296.714C140.895 296.433 140.548 296.04 140.298 295.534C140.051 295.028 139.928 294.437 139.928 293.761C139.928 293.08 140.051 292.484 140.298 291.976C140.548 291.467 140.895 291.072 141.338 290.791C141.784 290.51 142.303 290.369 142.894 290.369C143.485 290.369 144.002 290.51 144.445 290.791C144.891 291.072 145.237 291.467 145.485 291.976C145.735 292.484 145.86 293.08 145.86 293.761C145.86 294.437 145.735 295.028 145.485 295.534C145.237 296.04 144.891 296.433 144.445 296.714C144.002 296.996 143.485 297.136 142.894 297.136ZM142.894 296.233C143.342 296.233 143.712 296.118 144.002 295.888C144.291 295.658 144.506 295.355 144.645 294.98C144.784 294.605 144.854 294.199 144.854 293.761C144.854 293.324 144.784 292.916 144.645 292.538C144.506 292.161 144.291 291.855 144.002 291.622C143.712 291.389 143.342 291.273 142.894 291.273C142.445 291.273 142.075 291.389 141.786 291.622C141.496 291.855 141.281 292.161 141.142 292.538C141.003 292.916 140.933 293.324 140.933 293.761C140.933 294.199 141.003 294.605 141.142 294.98C141.281 295.355 141.496 295.658 141.786 295.888C142.075 296.118 142.445 296.233 142.894 296.233ZM148.864 288.273V291.273H147.926V288.273H148.864ZM155.891 291.92L154.988 292.176C154.931 292.026 154.847 291.879 154.736 291.737C154.628 291.592 154.481 291.473 154.293 291.379C154.106 291.286 153.866 291.239 153.573 291.239C153.172 291.239 152.839 291.331 152.572 291.516C152.307 291.697 152.175 291.929 152.175 292.21C152.175 292.46 152.266 292.658 152.448 292.803C152.63 292.947 152.914 293.068 153.3 293.165L154.272 293.403C154.857 293.545 155.293 293.763 155.58 294.055C155.867 294.345 156.011 294.719 156.011 295.176C156.011 295.551 155.903 295.886 155.687 296.182C155.474 296.477 155.175 296.71 154.792 296.881C154.408 297.051 153.962 297.136 153.454 297.136C152.786 297.136 152.234 296.991 151.796 296.702C151.359 296.412 151.082 295.989 150.965 295.432L151.92 295.193C152.011 295.545 152.182 295.81 152.435 295.986C152.691 296.162 153.025 296.25 153.437 296.25C153.905 296.25 154.278 296.151 154.553 295.952C154.832 295.75 154.971 295.509 154.971 295.227C154.971 295 154.891 294.81 154.732 294.656C154.573 294.5 154.329 294.384 153.999 294.307L152.908 294.051C152.309 293.909 151.868 293.689 151.587 293.391C151.309 293.089 151.17 292.713 151.17 292.261C151.17 291.892 151.273 291.565 151.481 291.281C151.691 290.997 151.976 290.774 152.337 290.612C152.701 290.45 153.113 290.369 153.573 290.369C154.221 290.369 154.729 290.511 155.099 290.795C155.471 291.08 155.735 291.455 155.891 291.92ZM161.758 289.21V288.273H168.304V289.21H165.56V297H164.503V289.21H161.758ZM172.194 297.136C171.563 297.136 171.019 296.997 170.562 296.719C170.107 296.438 169.756 296.045 169.509 295.543C169.265 295.037 169.143 294.449 169.143 293.778C169.143 293.108 169.265 292.517 169.509 292.006C169.756 291.491 170.1 291.091 170.54 290.804C170.983 290.514 171.5 290.369 172.091 290.369C172.432 290.369 172.769 290.426 173.101 290.54C173.434 290.653 173.736 290.838 174.009 291.094C174.282 291.347 174.499 291.682 174.661 292.099C174.823 292.517 174.904 293.031 174.904 293.642V294.068H169.858V293.199H173.881C173.881 292.83 173.807 292.5 173.66 292.21C173.515 291.92 173.307 291.692 173.037 291.524C172.77 291.357 172.455 291.273 172.091 291.273C171.691 291.273 171.344 291.372 171.052 291.571C170.762 291.767 170.539 292.023 170.383 292.338C170.226 292.653 170.148 292.991 170.148 293.352V293.932C170.148 294.426 170.233 294.845 170.404 295.189C170.577 295.53 170.817 295.79 171.124 295.969C171.431 296.145 171.787 296.233 172.194 296.233C172.458 296.233 172.697 296.196 172.91 296.122C173.125 296.045 173.312 295.932 173.468 295.781C173.624 295.628 173.745 295.437 173.83 295.21L174.802 295.483C174.699 295.812 174.527 296.102 174.286 296.352C174.045 296.599 173.746 296.793 173.391 296.932C173.036 297.068 172.637 297.136 172.194 297.136ZM177.034 297V290.455H178.005V291.443H178.074C178.193 291.119 178.409 290.857 178.721 290.655C179.034 290.453 179.386 290.352 179.778 290.352C179.852 290.352 179.944 290.354 180.055 290.357C180.166 290.359 180.25 290.364 180.306 290.369V291.392C180.272 291.384 180.194 291.371 180.072 291.354C179.953 291.334 179.826 291.324 179.693 291.324C179.375 291.324 179.091 291.391 178.841 291.524C178.593 291.655 178.397 291.837 178.252 292.07C178.11 292.3 178.039 292.562 178.039 292.858V297H177.034ZM182.099 297V290.455H183.07V291.477H183.155C183.292 291.128 183.512 290.857 183.816 290.663C184.12 290.467 184.485 290.369 184.911 290.369C185.343 290.369 185.702 290.467 185.989 290.663C186.279 290.857 186.505 291.128 186.667 291.477H186.735C186.903 291.139 187.154 290.871 187.489 290.672C187.824 290.47 188.226 290.369 188.695 290.369C189.28 290.369 189.759 290.553 190.131 290.919C190.503 291.283 190.689 291.849 190.689 292.619V297H189.684V292.619C189.684 292.136 189.552 291.791 189.288 291.584C189.023 291.376 188.712 291.273 188.354 291.273C187.894 291.273 187.538 291.412 187.285 291.69C187.032 291.966 186.905 292.315 186.905 292.739V297H185.883V292.517C185.883 292.145 185.762 291.845 185.52 291.618C185.279 291.388 184.968 291.273 184.587 291.273C184.326 291.273 184.082 291.342 183.854 291.482C183.63 291.621 183.448 291.814 183.309 292.061C183.172 292.305 183.104 292.588 183.104 292.909V297H182.099ZM197.765 291.92L196.861 292.176C196.804 292.026 196.721 291.879 196.61 291.737C196.502 291.592 196.354 291.473 196.167 291.379C195.979 291.286 195.739 291.239 195.446 291.239C195.046 291.239 194.712 291.331 194.445 291.516C194.181 291.697 194.049 291.929 194.049 292.21C194.049 292.46 194.14 292.658 194.321 292.803C194.503 292.947 194.787 293.068 195.174 293.165L196.145 293.403C196.731 293.545 197.167 293.763 197.454 294.055C197.74 294.345 197.884 294.719 197.884 295.176C197.884 295.551 197.776 295.886 197.56 296.182C197.347 296.477 197.049 296.71 196.665 296.881C196.282 297.051 195.836 297.136 195.327 297.136C194.66 297.136 194.107 296.991 193.669 296.702C193.232 296.412 192.955 295.989 192.838 295.432L193.793 295.193C193.884 295.545 194.056 295.81 194.309 295.986C194.564 296.162 194.898 296.25 195.31 296.25C195.779 296.25 196.151 296.151 196.427 295.952C196.705 295.75 196.844 295.509 196.844 295.227C196.844 295 196.765 294.81 196.606 294.656C196.446 294.5 196.202 294.384 195.873 294.307L194.782 294.051C194.182 293.909 193.742 293.689 193.461 293.391C193.182 293.089 193.043 292.713 193.043 292.261C193.043 291.892 193.147 291.565 193.354 291.281C193.564 290.997 193.85 290.774 194.211 290.612C194.574 290.45 194.986 290.369 195.446 290.369C196.094 290.369 196.603 290.511 196.972 290.795C197.344 291.08 197.608 291.455 197.765 291.92ZM206.632 297.136C206.041 297.136 205.523 296.996 205.076 296.714C204.633 296.433 204.287 296.04 204.037 295.534C203.79 295.028 203.666 294.437 203.666 293.761C203.666 293.08 203.79 292.484 204.037 291.976C204.287 291.467 204.633 291.072 205.076 290.791C205.523 290.51 206.041 290.369 206.632 290.369C207.223 290.369 207.74 290.51 208.183 290.791C208.629 291.072 208.976 291.467 209.223 291.976C209.473 292.484 209.598 293.08 209.598 293.761C209.598 294.437 209.473 295.028 209.223 295.534C208.976 296.04 208.629 296.433 208.183 296.714C207.74 296.996 207.223 297.136 206.632 297.136ZM206.632 296.233C207.081 296.233 207.45 296.118 207.74 295.888C208.03 295.658 208.244 295.355 208.383 294.98C208.523 294.605 208.592 294.199 208.592 293.761C208.592 293.324 208.523 292.916 208.383 292.538C208.244 292.161 208.03 291.855 207.74 291.622C207.45 291.389 207.081 291.273 206.632 291.273C206.183 291.273 205.814 291.389 205.524 291.622C205.234 291.855 205.02 292.161 204.88 292.538C204.741 292.916 204.672 293.324 204.672 293.761C204.672 294.199 204.741 294.605 204.88 294.98C205.02 295.355 205.234 295.658 205.524 295.888C205.814 296.118 206.183 296.233 206.632 296.233ZM214.648 290.455V291.307H211.119V290.455H214.648ZM212.176 297V289.551C212.176 289.176 212.264 288.864 212.44 288.614C212.616 288.364 212.845 288.176 213.126 288.051C213.408 287.926 213.705 287.864 214.017 287.864C214.264 287.864 214.466 287.884 214.622 287.923C214.778 287.963 214.895 288 214.972 288.034L214.682 288.903C214.631 288.886 214.56 288.865 214.469 288.839C214.381 288.814 214.264 288.801 214.119 288.801C213.787 288.801 213.547 288.885 213.399 289.053C213.254 289.22 213.182 289.466 213.182 289.79V297H212.176ZM226.496 288.273H227.553V294.051C227.553 294.648 227.412 295.18 227.131 295.649C226.852 296.115 226.459 296.483 225.95 296.753C225.442 297.02 224.845 297.153 224.161 297.153C223.476 297.153 222.879 297.02 222.371 296.753C221.862 296.483 221.467 296.115 221.186 295.649C220.908 295.18 220.769 294.648 220.769 294.051V288.273H221.825V293.966C221.825 294.392 221.919 294.771 222.107 295.104C222.294 295.433 222.561 295.693 222.908 295.884C223.257 296.071 223.675 296.165 224.161 296.165C224.646 296.165 225.064 296.071 225.413 295.884C225.763 295.693 226.03 295.433 226.215 295.104C226.402 294.771 226.496 294.392 226.496 293.966V288.273ZM234.763 291.92L233.86 292.176C233.803 292.026 233.719 291.879 233.608 291.737C233.5 291.592 233.353 291.473 233.165 291.379C232.978 291.286 232.738 291.239 232.445 291.239C232.044 291.239 231.711 291.331 231.443 291.516C231.179 291.697 231.047 291.929 231.047 292.21C231.047 292.46 231.138 292.658 231.32 292.803C231.502 292.947 231.786 293.068 232.172 293.165L233.144 293.403C233.729 293.545 234.165 293.763 234.452 294.055C234.739 294.345 234.882 294.719 234.882 295.176C234.882 295.551 234.774 295.886 234.559 296.182C234.345 296.477 234.047 296.71 233.664 296.881C233.28 297.051 232.834 297.136 232.326 297.136C231.658 297.136 231.105 296.991 230.668 296.702C230.23 296.412 229.953 295.989 229.837 295.432L230.791 295.193C230.882 295.545 231.054 295.81 231.307 295.986C231.563 296.162 231.897 296.25 232.309 296.25C232.777 296.25 233.149 296.151 233.425 295.952C233.703 295.75 233.843 295.509 233.843 295.227C233.843 295 233.763 294.81 233.604 294.656C233.445 294.5 233.201 294.384 232.871 294.307L231.78 294.051C231.181 293.909 230.74 293.689 230.459 293.391C230.181 293.089 230.041 292.713 230.041 292.261C230.041 291.892 230.145 291.565 230.353 291.281C230.563 290.997 230.848 290.774 231.209 290.612C231.573 290.45 231.985 290.369 232.445 290.369C233.093 290.369 233.601 290.511 233.97 290.795C234.343 291.08 234.607 291.455 234.763 291.92ZM239.741 297.136C239.11 297.136 238.566 296.997 238.108 296.719C237.654 296.438 237.303 296.045 237.056 295.543C236.812 295.037 236.689 294.449 236.689 293.778C236.689 293.108 236.812 292.517 237.056 292.006C237.303 291.491 237.647 291.091 238.087 290.804C238.53 290.514 239.047 290.369 239.638 290.369C239.979 290.369 240.316 290.426 240.648 290.54C240.981 290.653 241.283 290.838 241.556 291.094C241.829 291.347 242.046 291.682 242.208 292.099C242.37 292.517 242.451 293.031 242.451 293.642V294.068H237.405V293.199H241.428C241.428 292.83 241.354 292.5 241.206 292.21C241.062 291.92 240.854 291.692 240.584 291.524C240.317 291.357 240.002 291.273 239.638 291.273C239.238 291.273 238.891 291.372 238.599 291.571C238.309 291.767 238.086 292.023 237.929 292.338C237.773 292.653 237.695 292.991 237.695 293.352V293.932C237.695 294.426 237.78 294.845 237.951 295.189C238.124 295.53 238.364 295.79 238.671 295.969C238.978 296.145 239.334 296.233 239.741 296.233C240.005 296.233 240.243 296.196 240.456 296.122C240.672 296.045 240.858 295.932 241.015 295.781C241.171 295.628 241.292 295.437 241.377 295.21L242.349 295.483C242.246 295.812 242.074 296.102 241.833 296.352C241.591 296.599 241.293 296.793 240.938 296.932C240.583 297.068 240.184 297.136 239.741 297.136ZM245.314 297.068C245.103 297.068 244.923 296.993 244.772 296.842C244.622 296.692 244.547 296.511 244.547 296.301C244.547 296.091 244.622 295.911 244.772 295.76C244.923 295.609 245.103 295.534 245.314 295.534C245.524 295.534 245.704 295.609 245.855 295.76C246.005 295.911 246.081 296.091 246.081 296.301C246.081 296.44 246.045 296.568 245.974 296.685C245.906 296.801 245.814 296.895 245.697 296.966C245.583 297.034 245.456 297.068 245.314 297.068Z" fill="black" fill-opacity="0.7"/>
<path d="M161.179 299.386H243.664V300.205H161.179V299.386Z" fill="black" fill-opacity="0.7"/>
<defs>
<filter id="filter0_i_560_1753" x="0" y="0" width="320" height="320" filterUnits="userSpaceOnUse" color-interpolation-filters="sRGB">
<feFlood flood-opacity="0" result="BackgroundImageFix"/>
<feBlend mode="normal" in="SourceGraphic" in2="BackgroundImageFix" result="shape"/>
<feColorMatrix in="SourceAlpha" type="matrix" values="0 0 0 0 0 0 0 0 0 0 0 0 0 0 0 0 0 0 127 0" result="hardAlpha"/>
<feOffset/>
<feGaussianBlur stdDeviation="5"/>
<feComposite in2="hardAlpha" operator="arithmetic" k2="-1" k3="1"/>
<feColorMatrix type="matrix" values="0 0 0 0 0 0 0 0 0 0 0 0 0 0 0 0 0 0 0.25 0"/>
<feBlend mode="normal" in2="shape" result="effect1_innerShadow_560_1753"/>
</filter>
</defs>
</svg>
